# Blender v2.83.0 OBJ File: 'Tunnels.blend'
# www.blender.org
mtllib Pillar.008.mtl
o Pillar.008_Cube.012
v -0.149507 0.004438 0.066291
v -0.012769 0.637744 -0.099373
v -0.091578 0.004570 -0.223613
v 0.069091 0.004210 0.104279
v -0.048334 0.427744 -0.011084
v 0.110585 0.627219 -0.150921
v 0.048263 0.390865 -0.196026
v 0.205300 0.003903 -0.241667
vn -0.9682 0.1585 -0.1934
vn -0.0009 -1.0000 -0.0006
vn -0.1670 0.2158 0.9621
vn 0.3493 0.3352 0.8750
vn 0.1069 0.1591 -0.9815
vn 0.9269 0.0877 0.3649
vn -0.8004 -0.3795 0.4641
vn -0.0022 -1.0000 0.0000
vn -0.0590 0.1993 -0.9782
vn -0.3526 0.2643 -0.8977
vn -0.9239 0.2703 0.2708
vn 0.3895 0.3001 0.8708
usemtl Brown
s off
f 3//1 1//1 2//1
f 3//2 4//2 1//2
f 1//3 4//3 5//3
f 4//4 6//4 5//4
f 7//5 6//5 8//5
f 8//6 6//6 4//6
f 2//7 7//7 8//7
f 4//8 3//8 8//8
f 3//9 2//9 8//9
f 7//10 2//10 6//10
f 2//11 1//11 5//11
f 5//12 6//12 2//12
