# Blender v2.83.0 OBJ File: 'Tunnels.blend'
# www.blender.org
mtllib Pillar.003.mtl
o Pillar.003_Cube.007
v -0.031943 2.544693 0.173230
v -0.107934 2.542835 -0.015171
v 0.159904 2.543000 0.063230
v 0.079130 1.548391 -0.070885
v 0.005129 2.131001 -0.061051
v -0.049931 2.544257 -0.242140
vn 0.0026 0.9999 -0.0109
vn 0.4903 -0.1555 0.8576
vn 0.4914 0.0771 -0.8675
vn -0.9422 -0.2317 -0.2422
vn 0.8161 -0.1373 -0.5614
vn -0.0023 1.0000 0.0057
vn -0.9637 -0.1917 0.1860
usemtl Brown
s off
f 3//1 2//1 1//1
f 1//2 4//2 3//2
f 5//3 3//3 4//3
f 2//4 6//4 5//4
f 3//5 5//5 6//5
f 2//6 3//6 6//6
f 2//7 5//7 4//7 1//7
