# Blender v2.83.0 OBJ File: 'Tunnels.blend'
# www.blender.org
mtllib Pillar.000.mtl
g Pillar_Cube.018
v 0.065262 2.180932 -0.132199
v 0.175152 0.993435 -0.239039
v -0.108365 1.533574 -0.215615
v -0.075214 1.290745 0.170839
vn 0.1066 0.0989 -0.9894
vn 0.8639 0.0347 0.5025
usemtl Brown
s off
f 2//1 3//1 1//1
f 1//2 4//2 2//2
g Pillar.001_Cube.004
v 0.008123 3.375232 -0.096698
v -0.068445 2.776346 -0.206894
v 0.247048 2.538176 -0.323547
v 0.125332 2.452454 -0.112273
v 0.065262 2.180932 -0.132199
vn -0.2018 0.2021 -0.9584
vn 0.8445 0.0984 0.5264
vn 0.8810 -0.2254 0.4161
vn -0.4768 -0.2140 -0.8526
vn -0.5042 -0.0497 0.8622
usemtl Brown
s off
f 5//3 7//3 6//3
f 7//4 5//4 8//4
f 9//5 7//5 8//5
f 6//6 7//6 9//6
f 6//7 9//7 8//7 5//7
g Pillar.002_Cube.006
v -0.211871 1.515584 -0.083515
v -0.123604 2.333477 0.022041
v -0.075214 1.290745 0.170839
v 0.125332 2.452454 -0.112273
v 0.065262 2.180932 -0.132199
vn -0.8692 0.0301 0.4936
vn 0.4142 0.1474 0.8982
vn 0.9678 -0.2032 -0.1483
vn -0.5319 0.1784 -0.8278
vn 0.6781 -0.3305 -0.6565
vn -0.5406 0.1648 -0.8250
usemtl Brown
s off
f 12//8 11//8 10//8
f 12//9 13//9 11//9
f 14//10 13//10 12//10
f 14//11 11//11 13//11
f 12//12 10//12 14//12
f 11//13 14//13 10//13
g Pillar.003_Cube.007
v -0.050594 4.030468 0.274374
v -0.170954 4.027525 -0.024028
v 0.253267 4.027787 0.100148
v 0.125332 2.452454 -0.112273
v 0.008123 3.375232 -0.096698
v -0.079085 4.029777 -0.383518
vn 0.0026 0.9999 -0.0109
vn 0.4903 -0.1555 0.8576
vn 0.4914 0.0771 -0.8675
vn -0.9422 -0.2317 -0.2422
vn 0.8161 -0.1373 -0.5614
vn -0.0023 1.0000 0.0057
vn -0.9637 -0.1917 0.1860
usemtl Brown
s off
f 17//14 16//14 15//14
f 15//15 18//15 17//15
f 19//16 17//16 18//16
f 16//17 20//17 19//17
f 17//18 19//18 20//18
f 16//19 17//19 20//19
f 16//20 19//20 18//20 15//20
g Pillar.004_Cube.008
v -0.211871 1.515584 -0.083515
v -0.123604 2.333477 0.022041
v -0.191778 2.249975 -0.171971
v -0.385175 2.087909 0.035259
vn 0.1857 -0.1455 0.9718
vn -0.7032 -0.0660 -0.7079
vn -0.6846 0.7254 -0.0716
vn 0.9497 -0.0629 -0.3066
usemtl Brown
s off
f 21//21 22//21 24//21
f 24//22 23//22 21//22
f 23//23 24//23 22//23
f 22//24 21//24 23//24
g Pillar.005_Cube.009
v -0.050594 4.030468 0.274374
v -0.170954 4.027525 -0.024028
v -0.123604 2.333477 0.022041
v -0.029862 2.690594 0.184615
v 0.125332 2.452454 -0.112273
v 0.024603 2.973954 0.194474
vn -0.9272 -0.0157 0.3742
vn -0.8120 -0.0515 0.5814
vn 0.1529 -0.0637 0.9862
vn 0.9715 0.0517 0.2312
vn 0.5662 -0.3339 0.7536
vn 0.9701 -0.1808 -0.1622
vn 0.9095 0.1918 -0.3688
vn -0.4608 -0.0370 -0.8867
usemtl Brown
s off
f 26//25 27//25 25//25
f 28//26 25//26 27//26
f 30//27 25//27 28//27
f 30//28 29//28 25//28
f 29//29 30//29 27//29
f 30//30 28//30 27//30
f 26//31 25//31 29//31
f 29//32 27//32 26//32
g Pillar.006_Cube.010
v -0.211871 1.515584 -0.083515
v -0.191778 2.249976 -0.171971
v -0.108365 1.533574 -0.215615
v -0.068445 2.776346 -0.206894
v 0.065262 2.180932 -0.132199
vn -0.7825 -0.0533 -0.6204
vn -0.3410 0.0176 -0.9399
vn 0.4586 -0.0085 -0.8886
vn -0.1272 0.0953 0.9873
vn 0.7737 -0.2807 0.5680
vn -0.1197 0.1220 0.9853
usemtl Brown
s off
f 32//33 33//33 31//33
f 34//34 33//34 32//34
f 34//35 35//35 33//35
f 34//36 32//36 35//36
f 33//37 35//37 31//37
f 32//38 31//38 35//38
g Pillar.007_Cube.011
v -0.191778 2.249975 -0.171971
v -0.170954 4.027525 -0.024028
v -0.123604 2.333477 0.022041
v -0.068445 2.776346 -0.206894
v 0.008123 3.375232 -0.096698
vn -0.9410 -0.0171 0.3380
vn -0.5562 0.0754 -0.8277
vn 0.1754 0.1564 -0.9720
vn 0.4896 0.0374 0.8711
vn 0.9920 -0.1260 -0.0047
vn 0.9440 -0.2365 -0.2300
usemtl Brown
s off
f 38//39 37//39 36//39
f 37//40 39//40 36//40
f 37//41 40//41 39//41
f 40//42 37//42 38//42
f 40//43 38//43 39//43
f 38//44 36//44 39//44
g Pillar.008_Cube.012
v -0.236800 0.007029 0.104996
v -0.020224 1.010104 -0.157394
v -0.145048 0.007239 -0.354175
v 0.109431 0.006669 0.165165
v -0.076554 0.677492 -0.017556
v 0.175152 0.993435 -0.239039
v 0.076442 0.619080 -0.310480
v 0.325169 0.006182 -0.382770
vn -0.9682 0.1585 -0.1934
vn -0.0009 -1.0000 -0.0006
vn -0.1670 0.2158 0.9621
vn 0.3493 0.3352 0.8750
vn 0.1069 0.1591 -0.9815
vn 0.9269 0.0877 0.3649
vn -0.8004 -0.3795 0.4641
vn -0.0022 -1.0000 0.0000
vn -0.0590 0.1993 -0.9782
vn -0.3526 0.2643 -0.8977
vn -0.9239 0.2703 0.2708
vn 0.3895 0.3001 0.8708
usemtl Brown
s off
f 43//45 41//45 42//45
f 43//46 44//46 41//46
f 41//47 44//47 45//47
f 44//48 46//48 45//48
f 47//49 46//49 48//49
f 48//50 46//50 44//50
f 42//51 47//51 48//51
f 44//52 43//52 48//52
f 43//53 42//53 48//53
f 47//54 42//54 46//54
f 42//55 41//55 45//55
f 45//56 46//56 42//56
g Pillar.009_Cube.013
v -0.236800 0.007029 0.104996
v -0.211871 1.515584 -0.083515
v -0.020224 1.010104 -0.157394
v -0.108365 1.533574 -0.215615
v -0.076554 0.677492 -0.017556
v 0.175152 0.993435 -0.239039
v -0.075214 1.290745 0.170839
v 0.076442 0.619080 -0.310480
vn -0.7812 -0.0647 -0.6209
vn 0.2499 0.1160 0.9613
vn -0.6291 -0.1898 -0.7538
vn 0.7714 -0.1884 0.6079
vn -0.9143 -0.1171 0.3877
vn 0.1821 0.1378 -0.9736
vn 0.3526 -0.2643 0.8977
vn 0.9239 -0.2703 -0.2708
vn -0.3895 -0.3001 -0.8708
vn 0.8700 0.4477 0.2067
vn 0.4399 0.7769 0.4505
usemtl Brown
s off
f 50//57 52//57 49//57
f 50//58 49//58 53//58
f 56//59 51//59 49//59 52//59
f 53//60 54//60 55//60
f 53//61 55//61 50//61
f 56//62 52//62 54//62
f 56//63 54//63 51//63
f 51//64 53//64 49//64
f 53//65 51//65 54//65
f 54//66 52//66 55//66
f 55//67 52//67 50//67
