# Blender v2.83.0 OBJ File: 'gun.blend'
# www.blender.org
mtllib Hex.mtl
o Hexagon_Cylinder.003
v 0.000000 0.000000 -4.000000
v 0.000000 8.000000 -4.000000
v 3.464102 0.000000 -2.000000
v 3.464102 8.000000 -2.000000
v 3.464102 0.000000 2.000000
v 3.464102 8.000000 2.000000
v -0.000000 0.000000 4.000000
v -0.000000 8.000000 4.000000
v -3.464102 0.000000 2.000000
v -3.464102 8.000000 2.000000
v -3.464102 0.000000 -2.000000
v -3.464102 8.000000 -2.000000
v 1.234451 -0.045402 0.423433
v 1.349451 -0.331602 0.542887
v 1.444026 -0.044708 0.718846
v -1.062204 -0.044708 1.984750
v -0.904801 -0.331602 1.861745
v -0.806544 -0.045402 1.728178
v -0.950288 -0.045402 0.604033
v -1.088580 -0.331602 0.695519
v -1.278749 -0.044708 0.756692
v -2.361432 0.043695 2.379804
v -2.027716 -0.376587 2.339487
v -1.770020 0.042528 2.232520
v -2.914637 0.068351 1.557950
v -3.024729 -0.357817 1.875553
v -3.041587 0.067184 2.154058
v -0.423124 0.042528 0.663634
v -0.303134 -0.376587 0.915530
v -0.245827 0.043695 1.246752
v -2.106591 0.067184 1.792189
v -2.291795 -0.357817 1.583506
v -2.438804 0.068351 1.281215
v -1.758150 0.056023 1.063267
v -1.470447 -0.367202 1.237101
v -1.201562 0.054856 1.311602
v -1.469905 0.054856 -0.678095
v -1.546064 -0.367202 -0.946514
v -1.547155 0.056023 -1.282655
v -2.087216 0.068351 -1.750763
v -2.269005 -0.357816 -1.468019
v -2.350973 0.067184 -1.201316
v -0.917601 0.043695 0.104590
v -0.664463 -0.376587 -0.116572
v -0.511675 0.042528 -0.350034
v -3.146211 0.067184 -1.811860
v -2.899544 -0.357816 -1.942261
v -2.571003 0.068351 -2.013346
v -2.552120 0.042528 -0.684874
v -2.777474 -0.376587 -0.849387
v -2.985419 0.043695 -1.113491
v -0.575589 -0.044708 -1.877935
v -0.514657 -0.331602 -1.687690
v -0.423346 -0.045402 -1.549282
v 0.681084 -0.045402 -1.295119
v 0.643109 -0.331602 -1.456527
v 0.651526 -0.044708 -1.656114
v -1.036024 -0.044708 -1.032538
v -0.884897 -0.331602 -0.901899
v -0.734847 -0.045402 -0.831333
v -0.496619 0.043695 -3.233598
v -0.574281 -0.376587 -2.906550
v -0.563102 0.042528 -2.627760
v -1.620372 -0.045402 -0.124078
v -1.785552 -0.331602 -0.138566
v -1.972462 -0.044708 -0.209070
v 0.465897 0.068351 -3.468209
v 0.206017 -0.357817 -3.681409
v -0.049445 0.067184 -3.793605
v 0.442734 0.042528 -0.821153
v 0.164878 -0.376587 -0.795750
v -0.165709 0.043695 -0.856606
v -0.033504 0.067184 -2.791152
v 0.226377 -0.357817 -2.892696
v 0.560865 0.068351 -2.926009
v 0.529797 0.056023 -2.211988
v 0.267140 -0.367202 -2.002219
v 0.104192 0.054856 -1.775731
v 0.102199 -0.045402 0.374749
v 0.168947 -0.331602 0.526536
v 0.197035 -0.044708 0.724316
v 1.613376 0.043695 2.066207
v 1.630151 -0.376587 1.730483
v 1.568364 0.042528 1.458396
v 0.709717 0.068351 2.472258
v 1.004091 -0.357817 2.634541
v 1.275719 0.067184 2.698315
v 0.250204 0.042528 -0.134711
v 0.518781 -0.376587 -0.210313
v 0.854923 0.043695 -0.210708
v 1.077400 0.067184 1.715545
v 0.840370 -0.357817 1.862739
v 0.517551 0.068351 1.956437
v 0.418005 0.056023 1.248707
v 0.638047 -0.367202 0.994594
v 0.757002 0.054856 0.742208
v 1.959445 -0.045402 0.035804
v 1.830817 -0.331602 -0.068836
v 1.715618 -0.044708 -0.232038
v 3.089253 -0.045402 -0.053069
v 3.004604 -0.331602 -0.195650
v 2.952758 -0.044708 -0.388569
v 1.384252 0.043695 -1.548949
v 1.408282 -0.376587 -1.213667
v 1.502582 0.042528 -0.951071
v 2.232049 0.068351 -2.061508
v 1.920181 -0.357817 -2.186924
v 1.642826 0.067184 -2.217314
v 3.004071 0.042528 0.470570
v 2.746635 -0.376587 0.578160
v 2.413017 0.043695 0.619283
v 1.958769 0.067184 -1.265818
v 2.176217 -0.357817 -1.440648
v 2.485303 0.068351 -1.572774
v 2.669873 0.056023 -0.882321
v 2.482245 -0.367202 -0.603417
v 2.394749 0.054856 -0.338476
v 1.676863 0.040310 -2.779065
v 1.397660 -0.347906 -2.674393
v 1.197948 0.039275 -2.528198
v 2.538374 0.040310 1.179715
v 2.291762 -0.347906 1.347325
v 2.132195 0.039275 1.536523
v 3.176230 0.040310 1.777885
v 3.274112 -0.347906 1.496231
v 3.289263 0.039275 1.249192
v 3.219530 0.040310 -1.345552
v 3.317413 -0.347906 -1.627207
v 3.332563 0.039275 -1.874246
v -0.228578 0.226300 3.233478
v 0.292457 -0.413639 3.409561
v 0.748339 0.224390 3.433598
v -1.197552 0.129860 2.923377
v -0.807280 -0.379555 2.769757
v -0.529759 0.128404 2.559563
vt 0.498047 0.984087
vt 0.907130 0.747903
vt 0.907130 0.275535
vt 0.498047 0.039350
vt 0.088964 0.275535
vt 0.088964 0.747903
vt 0.280033 0.131646
vt 0.011267 0.275404
vt 0.011882 0.012736
vt 0.280033 0.131646
vt 0.011267 0.275404
vt 0.011882 0.012736
vt 0.280033 0.131646
vt 0.011267 0.275404
vt 0.011882 0.012736
vt 0.280033 0.131646
vt 0.011267 0.275404
vt 0.011882 0.012736
vt 0.280033 0.131646
vt 0.011267 0.275404
vt 0.011882 0.012736
vt 0.280033 0.131646
vt 0.011267 0.275404
vt 0.011882 0.012736
vt 0.280033 0.131646
vt 0.011267 0.275404
vt 0.011882 0.012736
vt 0.280033 0.131646
vt 0.011267 0.275404
vt 0.011882 0.012736
vt 0.280033 0.131646
vt 0.011267 0.275404
vt 0.011882 0.012736
vt 0.280033 0.131646
vt 0.011267 0.275404
vt 0.011882 0.012736
vt 0.280033 0.131646
vt 0.011267 0.275404
vt 0.011882 0.012736
vt 0.280033 0.131646
vt 0.011267 0.275404
vt 0.011882 0.012736
vt 0.280033 0.131646
vt 0.011267 0.275404
vt 0.011882 0.012736
vt 0.280033 0.131646
vt 0.011267 0.275404
vt 0.011882 0.012736
vt 0.280033 0.131646
vt 0.011267 0.275404
vt 0.011882 0.012736
vt 0.280033 0.131646
vt 0.011267 0.275404
vt 0.011882 0.012736
vt 0.280033 0.131646
vt 0.011267 0.275404
vt 0.011882 0.012736
vt 0.280033 0.131646
vt 0.011267 0.275404
vt 0.011882 0.012736
vt 0.280033 0.131646
vt 0.011267 0.275404
vt 0.011882 0.012736
vt 0.280033 0.131646
vt 0.011267 0.275404
vt 0.011882 0.012736
vt 0.280033 0.131646
vt 0.011267 0.275404
vt 0.011882 0.012736
vt 0.280033 0.131646
vt 0.011267 0.275404
vt 0.011882 0.012736
vt 0.280033 0.131646
vt 0.011267 0.275404
vt 0.011882 0.012736
vt 0.280033 0.131646
vt 0.011267 0.275404
vt 0.011882 0.012736
vt 0.280033 0.131646
vt 0.011267 0.275404
vt 0.011882 0.012736
vt 0.280033 0.131646
vt 0.011267 0.275404
vt 0.011882 0.012736
vt 0.280033 0.131646
vt 0.011267 0.275404
vt 0.011882 0.012736
vt 0.280033 0.131646
vt 0.011267 0.275404
vt 0.011882 0.012736
vt 0.280033 0.131646
vt 0.011267 0.275404
vt 0.011882 0.012736
vt 0.280033 0.131646
vt 0.011267 0.275404
vt 0.011882 0.012736
vt 0.280033 0.131646
vt 0.011267 0.275404
vt 0.011882 0.012736
vt 0.280033 0.131646
vt 0.011267 0.275404
vt 0.011882 0.012736
vt 0.280033 0.131646
vt 0.011267 0.275404
vt 0.011882 0.012736
vt 0.280033 0.131646
vt 0.011267 0.275404
vt 0.011882 0.012736
vt 0.280033 0.131646
vt 0.011267 0.275404
vt 0.011882 0.012736
vt 0.280033 0.131646
vt 0.011267 0.275404
vt 0.011882 0.012736
vt 0.280033 0.131646
vt 0.011267 0.275404
vt 0.011882 0.012736
vt 0.280033 0.131646
vt 0.011267 0.275404
vt 0.011882 0.012736
vt 0.280033 0.131646
vt 0.011267 0.275404
vt 0.011882 0.012736
vt 0.280033 0.131646
vt 0.011267 0.275404
vt 0.011882 0.012736
vt 0.280033 0.131646
vt 0.011267 0.275404
vt 0.011882 0.012736
vt 1.000000 0.000000
vt 1.000000 1.000000
vt 0.000000 1.000000
vt 0.000000 -0.000000
vt 1.000000 0.000000
vt 1.000000 1.000000
vt 0.000000 1.000000
vt 0.000000 -0.000000
vt 1.000000 0.000000
vt 1.000000 1.000000
vt 0.000000 1.000000
vt 0.000000 -0.000000
vt 1.000000 0.000000
vt 1.000000 1.000000
vt 0.000000 1.000000
vt 0.000000 -0.000000
vt 1.000000 0.000000
vt 1.000000 1.000000
vt 0.000000 1.000000
vt 0.000000 -0.000000
vt 1.000000 0.000000
vt 1.000000 1.000000
vt 0.000000 1.000000
vt 0.000000 -0.000000
vn 0.0000 -1.0000 0.0000
vn -0.8125 -0.0858 0.5766
vn -0.7059 -0.0858 -0.7031
vn -0.4201 -0.0858 -0.9034
vn -0.2407 -0.0985 -0.9656
vn 0.9735 -0.0971 0.2071
vn -0.9520 -0.0985 0.2897
vn 0.8343 -0.0971 -0.5427
vn 0.4053 -0.0978 -0.9089
vn 0.9872 -0.0978 -0.1263
vn 0.8973 -0.0971 0.4305
vn -0.7424 -0.0985 -0.6626
vn 0.3292 -0.0971 0.9393
vn 0.6997 -0.0985 -0.7076
vn 0.9040 -0.0858 -0.4189
vn 0.9930 -0.0858 -0.0815
vn 0.5533 -0.0858 -0.8285
vn 0.9892 -0.0985 0.1084
vn 0.2336 -0.0858 -0.9685
vn -0.5312 -0.0971 0.8417
vn 0.0577 -0.0985 -0.9935
vn 0.2204 -0.0971 0.9706
vn 0.7125 -0.0978 0.6948
vn -0.9615 -0.0858 0.2610
vn -0.9924 -0.0985 0.0737
vn 0.3690 -0.0971 -0.9244
vn 0.1243 -0.0985 0.9873
vn -0.3935 -0.0971 -0.9142
vn -0.8272 -0.0978 -0.5534
vn 0.7366 -0.0858 -0.6708
vn 0.9228 -0.0858 -0.3756
vn 0.9762 -0.0985 -0.1934
vn -0.2543 -0.0971 0.9622
vn -0.2430 -0.0985 -0.9650
vn 0.5014 -0.0971 0.8597
vn 0.8881 -0.0978 0.4491
vn 0.4621 -0.0946 0.8818
vn 0.6571 -0.0946 0.7478
vn -0.9736 -0.0946 -0.2080
vn 0.1994 -0.1057 -0.9742
vn -0.4761 -0.1013 -0.8735
vn 0.5000 0.0000 -0.8660
vn 1.0000 0.0000 0.0000
vn 0.5000 0.0000 0.8660
vn -0.5000 0.0000 0.8660
vn -1.0000 0.0000 0.0000
vn -0.5000 0.0000 -0.8660
usemtl Black
s off
f 1/1/1 3/2/1 5/3/1 7/4/1 9/5/1 11/6/1
f 14/7/2 15/8/2 13/9/2
f 17/10/3 16/11/3 18/12/3
f 20/13/4 21/14/4 19/15/4
f 23/16/5 22/17/5 24/18/5
f 26/19/6 25/20/6 27/21/6
f 29/22/7 30/23/7 28/24/7
f 32/25/8 33/26/8 31/27/8
f 35/28/9 34/29/9 36/30/9
f 38/31/10 39/32/10 37/33/10
f 41/34/11 40/35/11 42/36/11
f 44/37/12 43/38/12 45/39/12
f 47/40/13 48/41/13 46/42/13
f 50/43/14 51/44/14 49/45/14
f 53/46/15 52/47/15 54/48/15
f 56/49/16 57/50/16 55/51/16
f 59/52/17 58/53/17 60/54/17
f 62/55/18 61/56/18 63/57/18
f 65/58/19 66/59/19 64/60/19
f 68/61/20 67/62/20 69/63/20
f 71/64/21 72/65/21 70/66/21
f 74/67/22 75/68/22 73/69/22
f 77/70/23 76/71/23 78/72/23
f 80/73/24 81/74/24 79/75/24
f 83/76/25 82/77/25 84/78/25
f 86/79/26 85/80/26 87/81/26
f 89/82/27 90/83/27 88/84/27
f 92/85/28 93/86/28 91/87/28
f 95/88/29 94/89/29 96/90/29
f 98/91/30 99/92/30 97/93/30
f 101/94/31 102/95/31 100/96/31
f 104/97/32 103/98/32 105/99/32
f 107/100/33 106/101/33 108/102/33
f 110/103/34 111/104/34 109/105/34
f 113/106/35 114/107/35 112/108/35
f 116/109/36 115/110/36 117/111/36
f 119/112/37 118/113/37 120/114/37
f 122/115/38 121/116/38 123/117/38
f 125/118/39 124/119/39 126/120/39
f 128/121/39 127/122/39 129/123/39
f 131/124/40 130/125/40 132/126/40
f 134/127/41 133/128/41 135/129/41
usemtl Material
f 1/130/42 2/131/42 4/132/42 3/133/42
f 3/134/43 4/135/43 6/136/43 5/137/43
f 5/138/44 6/139/44 8/140/44 7/141/44
f 7/142/45 8/143/45 10/144/45 9/145/45
f 9/146/46 10/147/46 12/148/46 11/149/46
f 11/150/47 12/151/47 2/152/47 1/153/47
