# Blender v2.83.0 OBJ File: 'Tunnels.blend'
# www.blender.org
mtllib Teeth.mtl
o Teeth_Cylinder.004
v 1.234451 0.046384 0.423433
v 1.349451 -0.904770 0.542887
v 1.444026 0.046409 0.718846
v -1.062204 0.046409 1.984750
v -0.904801 -0.904770 1.861745
v -0.806544 0.046384 1.728178
v -0.950288 0.046384 0.604033
v -1.088580 -0.904770 0.695519
v -1.278749 0.046409 0.756692
v -2.361432 0.049548 2.379804
v -2.027716 -0.949756 2.339487
v -1.770020 0.049506 2.232520
v -2.914637 0.050423 1.557950
v -3.024729 -0.930985 1.875553
v -3.041587 0.050382 2.154058
v -0.423124 0.049506 0.663634
v -0.303134 -0.949756 0.915530
v -0.245827 0.049548 1.246752
v -2.106591 0.050382 1.792189
v -2.291795 -0.930985 1.583506
v -2.438804 0.050423 1.281215
v -1.758150 0.049986 1.063267
v -1.470447 -0.940371 1.237101
v -1.201562 0.049944 1.311602
v -1.469905 0.049944 -0.678095
v -1.546064 -0.940370 -0.946514
v -1.547155 0.049986 -1.282655
v -2.087216 0.050423 -1.750763
v -2.269005 -0.930985 -1.468019
v -2.350973 0.050382 -1.201316
v -0.917601 0.049548 0.104590
v -0.664463 -0.949756 -0.116572
v -0.511675 0.049506 -0.350034
v -3.146211 0.050382 -1.811860
v -2.899544 -0.930985 -1.942261
v -2.571003 0.050423 -2.013346
v -2.552120 0.049506 -0.684874
v -2.777474 -0.949756 -0.849387
v -2.985419 0.049548 -1.113491
v -0.575590 0.046409 -1.877935
v -0.514657 -0.904770 -1.687690
v -0.423346 0.046384 -1.549282
v 0.681084 0.046384 -1.295119
v 0.643109 -0.904770 -1.456527
v 0.651526 0.046409 -1.656114
v -1.036024 0.046409 -1.032538
v -0.884897 -0.904770 -0.901899
v -0.734847 0.046384 -0.831333
v -0.496619 0.049548 -3.233598
v -0.574281 -0.949756 -2.906550
v -0.563102 0.049506 -2.627760
v -1.620372 0.046384 -0.124078
v -1.785552 -0.904770 -0.138566
v -1.972462 0.046409 -0.209070
v 0.465897 0.050423 -3.468209
v 0.206017 -0.930985 -3.681409
v -0.049445 0.050382 -3.793605
v 0.442734 0.049506 -0.821153
v 0.164878 -0.949756 -0.795750
v -0.165709 0.049548 -0.856606
v -0.033504 0.050382 -2.791152
v 0.226377 -0.930985 -2.892696
v 0.560865 0.050423 -2.926009
v 0.529797 0.049986 -2.211988
v 0.267140 -0.940371 -2.002219
v 0.104192 0.049944 -1.775731
v 0.102199 0.046384 0.374749
v 0.168947 -0.904770 0.526536
v 0.197035 0.046409 0.724316
v 1.613376 0.049548 2.066207
v 1.630151 -0.949756 1.730483
v 1.568364 0.049506 1.458396
v 0.709717 0.050423 2.472258
v 1.004091 -0.930985 2.634541
v 1.275719 0.050382 2.698315
v 0.250204 0.049506 -0.134711
v 0.518781 -0.949756 -0.210313
v 0.854923 0.049548 -0.210708
v 1.077400 0.050382 1.715545
v 0.840370 -0.930985 1.862739
v 0.517551 0.050423 1.956437
v 0.418005 0.049986 1.248707
v 0.638047 -0.940371 0.994594
v 0.757002 0.049944 0.742208
v 1.959445 0.046384 0.035804
v 1.830817 -0.904770 -0.068836
v 1.715618 0.046409 -0.232038
v 3.089253 0.046384 -0.053069
v 3.004604 -0.904770 -0.195650
v 2.952758 0.046409 -0.388569
v 1.384252 0.049548 -1.548949
v 1.408282 -0.949756 -1.213667
v 1.502582 0.049506 -0.951071
v 2.232049 0.050423 -2.061508
v 1.920181 -0.930985 -2.186924
v 1.642826 0.050382 -2.217314
v 3.004071 0.049506 0.470570
v 2.746635 -0.949756 0.578160
v 2.413017 0.049548 0.619283
v 1.958769 0.050382 -1.265818
v 2.176217 -0.930985 -1.440648
v 2.485303 0.050423 -1.572774
v 2.669873 0.049986 -0.882321
v 2.482245 -0.940371 -0.603417
v 2.394749 0.049944 -0.338476
v 1.676863 0.049428 -2.779065
v 1.397660 -0.921075 -2.674393
v 1.197948 0.049391 -2.528198
v 2.538374 0.049428 1.179715
v 2.291762 -0.921075 1.347325
v 2.132195 0.049391 1.536523
v 3.176230 0.049428 1.777885
v 3.274112 -0.921075 1.496231
v 3.289263 0.049391 1.249192
v 3.219530 0.049428 -1.345552
v 3.317413 -0.921075 -1.627207
v 3.332563 0.049391 -1.874246
v -0.228578 0.056032 3.233478
v 0.292457 -0.986807 3.409561
v 0.748339 0.055964 3.433598
v -1.197552 0.052607 2.923377
v -0.807280 -0.952724 2.769757
v -0.529759 0.052556 2.559563
vt 0.280033 0.131646
vt 0.011267 0.275404
vt 0.011882 0.012736
vt 0.280033 0.131646
vt 0.011267 0.275404
vt 0.011882 0.012736
vt 0.280033 0.131646
vt 0.011267 0.275404
vt 0.011882 0.012736
vt 0.280033 0.131646
vt 0.011267 0.275404
vt 0.011882 0.012736
vt 0.280033 0.131646
vt 0.011267 0.275404
vt 0.011882 0.012736
vt 0.280033 0.131646
vt 0.011267 0.275404
vt 0.011882 0.012736
vt 0.280033 0.131646
vt 0.011267 0.275404
vt 0.011882 0.012736
vt 0.280033 0.131646
vt 0.011267 0.275404
vt 0.011882 0.012736
vt 0.280033 0.131646
vt 0.011267 0.275404
vt 0.011882 0.012736
vt 0.280033 0.131646
vt 0.011267 0.275404
vt 0.011882 0.012736
vt 0.280033 0.131646
vt 0.011267 0.275404
vt 0.011882 0.012736
vt 0.280033 0.131646
vt 0.011267 0.275404
vt 0.011882 0.012736
vt 0.280033 0.131646
vt 0.011267 0.275404
vt 0.011882 0.012736
vt 0.280033 0.131646
vt 0.011267 0.275404
vt 0.011882 0.012736
vt 0.280033 0.131646
vt 0.011267 0.275404
vt 0.011882 0.012736
vt 0.280033 0.131646
vt 0.011267 0.275404
vt 0.011882 0.012736
vt 0.280033 0.131646
vt 0.011267 0.275404
vt 0.011882 0.012736
vt 0.280033 0.131646
vt 0.011267 0.275404
vt 0.011882 0.012736
vt 0.280033 0.131646
vt 0.011267 0.275404
vt 0.011882 0.012736
vt 0.280033 0.131646
vt 0.011267 0.275404
vt 0.011882 0.012736
vt 0.280033 0.131646
vt 0.011267 0.275404
vt 0.011882 0.012736
vt 0.280033 0.131646
vt 0.011267 0.275404
vt 0.011882 0.012736
vt 0.280033 0.131646
vt 0.011267 0.275404
vt 0.011882 0.012736
vt 0.280033 0.131646
vt 0.011267 0.275404
vt 0.011882 0.012736
vt 0.280033 0.131646
vt 0.011267 0.275404
vt 0.011882 0.012736
vt 0.280033 0.131646
vt 0.011267 0.275404
vt 0.011882 0.012736
vt 0.280033 0.131646
vt 0.011267 0.275404
vt 0.011882 0.012736
vt 0.280033 0.131646
vt 0.011267 0.275404
vt 0.011882 0.012736
vt 0.280033 0.131646
vt 0.011267 0.275404
vt 0.011882 0.012736
vt 0.280033 0.131646
vt 0.011267 0.275404
vt 0.011882 0.012736
vt 0.280033 0.131646
vt 0.011267 0.275404
vt 0.011882 0.012736
vt 0.280033 0.131646
vt 0.011267 0.275404
vt 0.011882 0.012736
vt 0.280033 0.131646
vt 0.011267 0.275404
vt 0.011882 0.012736
vt 0.280033 0.131646
vt 0.011267 0.275404
vt 0.011882 0.012736
vt 0.280033 0.131646
vt 0.011267 0.275404
vt 0.011882 0.012736
vt 0.280033 0.131646
vt 0.011267 0.275404
vt 0.011882 0.012736
vt 0.280033 0.131646
vt 0.011267 0.275404
vt 0.011882 0.012736
vt 0.280033 0.131646
vt 0.011267 0.275404
vt 0.011882 0.012736
vt 0.280033 0.131646
vt 0.011267 0.275404
vt 0.011882 0.012736
vt 0.280033 0.131646
vt 0.011267 0.275404
vt 0.011882 0.012736
vt 0.280033 0.131646
vt 0.011267 0.275404
vt 0.011882 0.012736
vn -0.8153 -0.0259 0.5784
vn -0.7081 -0.0259 -0.7056
vn -0.4213 -0.0259 -0.9065
vn -0.2414 -0.0415 -0.9695
vn 0.9772 -0.0423 0.2081
vn -0.9559 -0.0415 0.2907
vn 0.8376 -0.0423 -0.5446
vn 0.4071 -0.0419 -0.9124
vn 0.9911 -0.0419 -0.1266
vn 0.9007 -0.0423 0.4324
vn -0.7453 -0.0415 -0.6655
vn 0.3303 -0.0423 0.9429
vn 0.7026 -0.0415 -0.7103
vn 0.9071 -0.0259 -0.4202
vn 0.9963 -0.0259 -0.0816
vn 0.5553 -0.0259 -0.8312
vn 0.9932 -0.0415 0.1090
vn 0.2346 -0.0259 -0.9718
vn -0.5334 -0.0423 0.8448
vn 0.0581 -0.0415 -0.9974
vn 0.2211 -0.0423 0.9743
vn 0.7152 -0.0419 0.6977
vn -0.9648 -0.0259 0.2617
vn -0.9964 -0.0415 0.0738
vn 0.3706 -0.0423 -0.9278
vn 0.1246 -0.0415 0.9913
vn -0.3949 -0.0423 -0.9178
vn -0.8303 -0.0419 -0.5557
vn 0.7392 -0.0259 -0.6730
vn 0.9260 -0.0259 -0.3767
vn 0.9801 -0.0415 -0.1940
vn -0.2554 -0.0423 0.9659
vn -0.2438 -0.0415 -0.9689
vn 0.5032 -0.0423 0.8631
vn 0.8915 -0.0419 0.4510
vn 0.4637 -0.0379 0.8852
vn 0.6595 -0.0379 0.7507
vn -0.9772 -0.0379 -0.2089
vn 0.2003 -0.0650 -0.9776
vn -0.4778 -0.0515 -0.8770
usemtl Black
s off
f 2/1/1 3/2/1 1/3/1
f 5/4/2 4/5/2 6/6/2
f 8/7/3 9/8/3 7/9/3
f 11/10/4 10/11/4 12/12/4
f 14/13/5 13/14/5 15/15/5
f 17/16/6 18/17/6 16/18/6
f 20/19/7 21/20/7 19/21/7
f 23/22/8 22/23/8 24/24/8
f 26/25/9 27/26/9 25/27/9
f 29/28/10 28/29/10 30/30/10
f 32/31/11 31/32/11 33/33/11
f 35/34/12 36/35/12 34/36/12
f 38/37/13 39/38/13 37/39/13
f 41/40/14 40/41/14 42/42/14
f 44/43/15 45/44/15 43/45/15
f 47/46/16 46/47/16 48/48/16
f 50/49/17 49/50/17 51/51/17
f 53/52/18 54/53/18 52/54/18
f 56/55/19 55/56/19 57/57/19
f 59/58/20 60/59/20 58/60/20
f 62/61/21 63/62/21 61/63/21
f 65/64/22 64/65/22 66/66/22
f 68/67/23 69/68/23 67/69/23
f 71/70/24 70/71/24 72/72/24
f 74/73/25 73/74/25 75/75/25
f 77/76/26 78/77/26 76/78/26
f 80/79/27 81/80/27 79/81/27
f 83/82/28 82/83/28 84/84/28
f 86/85/29 87/86/29 85/87/29
f 89/88/30 90/89/30 88/90/30
f 92/91/31 91/92/31 93/93/31
f 95/94/32 94/95/32 96/96/32
f 98/97/33 99/98/33 97/99/33
f 101/100/34 102/101/34 100/102/34
f 104/103/35 103/104/35 105/105/35
f 107/106/36 106/107/36 108/108/36
f 110/109/37 109/110/37 111/111/37
f 113/112/38 112/113/38 114/114/38
f 116/115/38 115/116/38 117/117/38
f 119/118/39 118/119/39 120/120/39
f 122/121/40 121/122/40 123/123/40
